<svg width="21" height="16" viewBox="0 0 21 16" fill="none" xmlns="http://www.w3.org/2000/svg">
<path d="M6.90177 14.1704C5.15886 15.9238 2.20703 15.9168 1.38266 13.58C1.22126 13.1225 1.09222 12.6521 0.997305 12.1721C0.609782 10.2122 0.808673 8.18076 1.56883 6.33459C2.32898 4.48847 3.61626 2.91055 5.26787 1.80038C6.91951 0.690207 8.86129 0.0976562 10.8477 0.0976563C12.834 0.0976563 14.7758 0.690207 16.4274 1.80038C18.079 2.91055 19.3663 4.48847 20.1265 6.33465C20.8866 8.18076 21.0855 10.2122 20.698 12.1721C20.6031 12.6521 20.474 13.1225 20.3126 13.58C19.4882 15.9168 16.5364 15.9238 14.7935 14.1704L12.1031 11.4639C11.846 11.2053 11.8726 10.7789 11.9435 10.4203C11.9866 10.2023 11.9644 9.97626 11.8799 9.77088C11.7953 9.56549 11.6521 9.38993 11.4684 9.26646C11.2846 9.14298 11.0686 9.07704 10.8477 9.07704C10.6267 9.07704 10.4107 9.14298 10.2269 9.26646C10.0431 9.38993 9.89997 9.56549 9.8154 9.77088C9.73083 9.97626 9.70871 10.2023 9.75184 10.4203C9.82275 10.7789 9.84925 11.2053 9.59221 11.4639L6.90177 14.1704Z" fill="url(#paint0_linear_327_493)"/>
<defs>
<linearGradient id="paint0_linear_327_493" x1="19.9768" y1="5.14933" x2="2.14987" y2="5.14933" gradientUnits="userSpaceOnUse">
<stop stop-color="#64C2DB"/>
<stop offset="0.510417" stop-color="#7476ED"/>
<stop offset="1" stop-color="#E56F8C"/>
</linearGradient>
</defs>
</svg>
